<?xml version="1.0" standalone="no"?>
<!DOCTYPE svg PUBLIC "-//W3C//DTD SVG 20010904//EN"
 "http://www.w3.org/TR/2001/REC-SVG-20010904/DTD/svg10.dtd">
<svg version="1.0" xmlns="http://www.w3.org/2000/svg"
 width="640.000000pt" height="640.000000pt" viewBox="0 0 640.000000 640.000000"
 preserveAspectRatio="xMidYMid meet">
<metadata>
Created by potrace 1.14, written by Peter Selinger 2001-2017
</metadata>
<g transform="translate(0.000000,640.000000) scale(0.100000,-0.100000)"
fill="#000000" stroke="none">
<path d="M3366 6062 c-3 -5 -39 -8 -81 -8 -41 1 -75 -3 -75 -8 0 -6 -5 -5 -11
1 -9 9 -16 8 -27 -3 -12 -13 -16 -13 -23 -2 -7 10 -9 10 -9 -2 0 -12 -2 -12
-9 -1 -6 9 -10 10 -16 2 -5 -9 -10 -9 -21 0 -11 9 -15 8 -20 -5 -5 -13 -9 -14
-20 -5 -9 7 -14 8 -14 1 0 -5 -10 -8 -21 -5 -15 4 -27 0 -35 -12 -12 -17 -14
-17 -14 -2 0 10 -5 14 -15 11 -8 -4 -13 -9 -11 -13 2 -3 -11 -7 -30 -8 -60 -4
-74 -7 -74 -18 0 -5 -5 -3 -10 5 -5 8 -10 10 -10 4 0 -7 -7 -15 -16 -18 -8 -3
-13 -2 -10 2 3 5 -1 9 -9 9 -8 0 -12 -4 -9 -9 6 -9 -8 -11 -43 -9 -12 1 -26
-6 -32 -16 -6 -10 -11 -13 -11 -6 0 7 -7 10 -15 7 -8 -4 -13 -10 -10 -15 3 -4
-4 -6 -15 -4 -11 2 -20 -1 -20 -6 0 -6 -5 -7 -11 -4 -5 4 -20 -1 -31 -12 -12
-10 -18 -12 -14 -5 4 6 2 12 -3 12 -6 0 -11 -5 -11 -10 0 -6 -8 -10 -17 -8
-10 2 -17 -3 -16 -9 2 -7 -4 -13 -13 -13 -9 0 -13 5 -9 13 4 6 -1 3 -10 -8 -9
-11 -21 -19 -27 -17 -6 2 -18 0 -27 -4 -9 -4 -18 -8 -21 -9 -3 -2 -16 -6 -28
-10 -18 -6 -21 -10 -10 -17 9 -7 6 -8 -10 -5 -13 3 -25 0 -28 -7 -2 -6 -13
-12 -24 -13 -11 -1 -27 -9 -36 -17 -8 -9 -22 -16 -30 -16 -8 0 -14 -5 -14 -11
0 -5 -4 -7 -10 -4 -5 3 -10 1 -10 -6 0 -7 -3 -9 -6 -6 -4 4 -20 -3 -35 -14
-16 -11 -33 -18 -38 -15 -5 3 -8 -2 -7 -12 1 -11 -5 -16 -17 -14 -9 2 -20 -4
-23 -12 -3 -8 -21 -20 -40 -26 -31 -10 -39 -20 -35 -42 0 -4 -6 -5 -14 -2 -8
4 -17 -1 -21 -10 -3 -9 -10 -13 -15 -11 -11 7 -49 -31 -41 -41 4 -4 -1 -4 -12
0 -14 5 -17 2 -12 -9 3 -10 2 -13 -4 -10 -12 7 -71 -51 -61 -60 3 -3 -2 -3
-11 0 -11 4 -22 -2 -33 -19 -10 -14 -24 -26 -32 -26 -8 0 -12 -3 -10 -7 6 -11
-30 -43 -39 -35 -4 4 -4 -1 -1 -10 4 -12 2 -15 -9 -11 -9 3 -14 0 -12 -8 2 -8
-3 -13 -9 -11 -7 1 -13 -1 -13 -5 0 -13 -44 -59 -63 -66 -9 -4 -16 -12 -15
-19 2 -7 -3 -12 -10 -10 -6 1 -11 -1 -11 -5 3 -21 -3 -33 -17 -33 -8 0 -12 -4
-9 -10 3 -5 1 -10 -4 -10 -6 0 -10 -6 -9 -12 2 -7 -3 -12 -9 -10 -12 2 -15 -5
-12 -24 0 -3 -14 -19 -32 -35 -18 -16 -29 -29 -24 -29 5 0 -1 -7 -13 -16 -12
-8 -22 -23 -22 -33 0 -11 -7 -21 -15 -25 -8 -3 -15 -15 -15 -26 0 -12 -5 -18
-10 -15 -5 3 -10 -3 -10 -15 0 -12 -4 -19 -9 -15 -5 3 -12 1 -16 -5 -3 -5 -1
-10 5 -10 7 0 6 -5 -2 -14 -7 -8 -17 -11 -22 -8 -5 3 -6 -1 -1 -8 4 -7 2 -15
-4 -20 -7 -4 -14 -16 -15 -26 -2 -10 -8 -18 -12 -17 -5 1 -10 -10 -11 -24 0
-14 -5 -28 -11 -32 -13 -9 -37 -53 -37 -71 -1 -8 -7 -14 -15 -12 -12 3 -12 1
-3 -9 9 -9 7 -16 -10 -31 -12 -11 -16 -16 -8 -12 9 4 12 2 9 -7 -3 -8 -11 -13
-18 -11 -10 2 -10 -1 1 -14 12 -15 12 -17 0 -9 -11 6 -13 4 -8 -8 3 -9 2 -19
-4 -22 -5 -4 -6 -11 -3 -17 4 -7 2 -8 -4 -4 -12 7 -17 -11 -13 -43 2 -8 -2
-10 -11 -5 -9 5 -8 2 2 -11 8 -10 10 -16 4 -12 -7 4 -17 0 -23 -7 -8 -10 -9
-16 -1 -21 5 -3 10 -11 10 -17 0 -7 -4 -7 -13 0 -10 9 -12 3 -12 -24 1 -19 -2
-34 -6 -34 -5 0 -5 -7 -2 -17 4 -10 2 -14 -4 -10 -7 4 -10 -4 -8 -23 1 -16 -1
-28 -5 -25 -4 3 -11 -2 -14 -11 -5 -12 -2 -15 11 -10 17 6 17 5 1 -7 -10 -8
-15 -17 -11 -20 3 -4 1 -7 -7 -7 -10 0 -10 -3 0 -15 9 -11 9 -15 1 -15 -7 0
-9 -5 -6 -10 4 -6 1 -18 -7 -27 -9 -12 -9 -15 -1 -9 9 5 11 2 7 -8 -3 -9 -11
-16 -18 -16 -7 0 -6 -4 3 -9 9 -6 10 -11 3 -15 -6 -4 -9 -13 -6 -20 3 -8 0
-17 -5 -21 -6 -3 -8 -12 -4 -18 10 -17 11 -47 1 -41 -4 3 -9 -11 -9 -30 -2
-44 -2 -48 -12 -63 -4 -6 -2 -15 4 -19 8 -5 9 -3 4 6 -6 9 -4 11 4 5 9 -5 9
-11 3 -17 -6 -6 -8 -16 -6 -23 3 -7 0 -16 -7 -21 -8 -5 -10 -3 -4 6 6 9 4 11
-5 5 -10 -6 -9 -11 5 -22 15 -10 16 -16 7 -25 -14 -14 -16 -32 -4 -24 5 3 9
-1 9 -9 0 -8 -4 -12 -8 -9 -4 2 -10 0 -14 -6 -3 -5 0 -10 8 -10 7 0 14 -7 14
-15 0 -8 -4 -12 -8 -10 -4 3 -9 -2 -13 -10 -3 -8 3 -19 12 -24 10 -6 12 -11 5
-11 -7 0 -13 -5 -13 -11 0 -5 4 -8 9 -5 4 3 8 -4 7 -15 0 -11 -8 -24 -16 -29
-13 -8 -12 -10 3 -10 9 0 17 -5 17 -11 0 -5 -5 -7 -11 -3 -7 4 -7 -1 1 -16 8
-15 8 -20 1 -16 -6 4 -11 2 -11 -3 0 -6 4 -11 9 -11 5 0 8 -32 8 -71 0 -47 4
-73 13 -79 10 -6 10 -9 -1 -13 -12 -5 -12 -6 0 -6 10 -1 11 -4 2 -15 -9 -10
-8 -15 3 -19 15 -6 11 -47 -5 -47 -4 0 -6 -9 -4 -19 2 -13 -1 -18 -9 -15 -8 3
-16 -2 -20 -11 -4 -11 -2 -14 7 -9 8 5 8 2 -2 -9 -7 -9 -18 -14 -25 -10 -8 5
-8 3 0 -8 9 -11 9 -17 -1 -26 -7 -6 -17 -9 -21 -5 -5 4 -3 0 4 -9 10 -13 10
-19 -1 -28 -8 -6 -18 -7 -23 -3 -4 4 -2 -1 6 -11 7 -10 9 -17 4 -16 -21 4 -26
-2 -13 -18 9 -10 9 -14 2 -10 -14 9 -36 -26 -25 -38 4 -5 -2 -5 -13 -1 -15 6
-17 4 -8 -5 14 -14 6 -42 -10 -32 -5 3 -7 1 -3 -5 3 -6 2 -13 -4 -17 -15 -9
-12 -27 3 -20 6 4 5 1 -3 -7 -8 -7 -17 -22 -18 -33 -2 -11 -8 -23 -13 -26 -5
-3 -10 -17 -11 -32 -1 -15 -7 -27 -12 -27 -5 0 -6 -3 -3 -7 4 -3 1 -13 -6 -21
-9 -13 -9 -14 0 -8 9 5 11 2 7 -8 -3 -9 -10 -16 -16 -16 -5 0 -6 -5 -3 -11 4
-6 -1 -17 -11 -25 -11 -9 -14 -13 -7 -10 6 4 14 2 18 -4 3 -5 1 -10 -5 -10 -6
0 -8 -5 -5 -10 3 -5 2 -10 -3 -10 -6 0 -8 -9 -5 -20 3 -12 0 -20 -7 -20 -8 0
-11 -9 -7 -26 2 -14 -2 -31 -9 -39 -11 -10 -11 -14 -1 -18 9 -3 9 -7 0 -19
-10 -11 -10 -17 0 -28 9 -10 9 -11 0 -6 -9 5 -13 -2 -14 -23 -2 -40 -3 -43
-13 -60 -6 -10 -5 -12 2 -7 7 4 12 3 12 -3 0 -5 -5 -13 -11 -16 -6 -5 -4 -12
8 -21 15 -12 15 -13 1 -8 -12 4 -16 1 -14 -13 2 -10 -2 -21 -8 -25 -7 -5 -3
-8 9 -8 12 0 16 -3 9 -8 -13 -9 -27 -45 -15 -38 5 3 11 -1 14 -9 4 -10 1 -12
-11 -8 -14 5 -15 3 -4 -8 15 -16 16 -33 0 -23 -7 5 -8 3 -3 -6 5 -8 8 -43 7
-79 -1 -38 4 -71 11 -80 9 -12 9 -13 0 -7 -7 4 -13 2 -13 -3 0 -6 5 -11 11
-11 8 0 8 -5 -1 -15 -10 -12 -10 -15 0 -15 9 0 9 -4 -1 -17 -12 -14 -12 -16 0
-8 11 6 13 2 9 -19 -3 -14 -2 -28 1 -30 4 -3 6 -20 5 -40 -2 -27 2 -36 14 -36
13 0 12 -3 -4 -16 -10 -8 -13 -13 -6 -9 13 7 13 7 16 -45 1 -19 6 -34 11 -33
6 1 10 -18 9 -42 0 -30 3 -42 11 -38 9 3 11 -4 8 -21 -4 -17 -1 -26 7 -26 10
0 10 -3 1 -14 -9 -11 -9 -16 0 -22 8 -5 9 -3 4 6 -5 9 -4 11 4 6 6 -4 8 -12 5
-18 -4 -6 0 -14 7 -19 12 -7 11 -9 -1 -9 -12 0 -12 -2 -2 -9 7 -4 14 -18 15
-29 1 -12 5 -22 9 -22 4 0 4 -7 1 -17 -4 -10 -2 -14 5 -9 6 3 13 2 17 -4 3 -5
1 -10 -6 -10 -8 0 -9 -3 0 -13 6 -8 8 -17 4 -21 -4 -4 1 -4 11 0 14 5 17 4 12
-5 -4 -6 -2 -19 6 -28 11 -14 11 -16 -2 -8 -13 8 -13 7 -1 -8 7 -9 10 -17 7
-17 -4 0 -1 -6 6 -14 7 -8 17 -12 22 -9 4 3 5 -4 1 -16 -4 -13 -2 -21 5 -21 6
0 8 -5 5 -10 -3 -6 -2 -10 2 -10 5 0 16 -17 25 -39 9 -21 23 -45 30 -52 26
-28 43 -53 31 -45 -7 4 -13 3 -13 -3 0 -5 9 -13 20 -16 11 -4 17 -11 14 -17
-5 -8 -1 -9 11 -4 15 5 16 4 5 -9 -10 -12 -10 -15 3 -15 10 0 14 -7 10 -22 -3
-14 -1 -18 4 -12 6 9 11 8 20 -1 10 -11 10 -15 0 -18 -7 -3 -4 -6 7 -6 13 -1
16 -6 12 -18 -4 -10 -4 -14 0 -10 9 9 45 -33 38 -44 -3 -5 0 -9 7 -9 17 0 50
-41 42 -53 -3 -5 -2 -7 4 -4 10 6 43 -27 43 -44 0 -5 3 -8 7 -6 10 6 53 -39
46 -47 -4 -3 -1 -6 6 -6 18 0 41 -26 42 -47 0 -10 3 -13 5 -6 6 13 34 6 34 -9
0 -12 47 -58 60 -58 5 0 10 -4 10 -10 0 -5 7 -10 16 -10 8 0 13 -4 10 -9 -3
-5 1 -12 10 -15 10 -4 13 -2 8 7 -6 8 -3 8 8 -1 10 -8 14 -20 11 -29 -4 -10
-2 -14 4 -10 15 9 44 -3 37 -14 -3 -5 2 -9 10 -9 9 0 16 -5 16 -11 0 -5 4 -8
9 -5 4 3 21 -6 37 -19 16 -14 35 -25 42 -25 7 0 10 -5 7 -10 -3 -6 3 -10 13
-10 11 0 27 -10 36 -22 9 -13 14 -17 11 -10 -3 6 -1 12 4 12 6 0 11 -4 11 -10
0 -5 7 -10 15 -10 8 0 15 -4 15 -10 0 -5 7 -10 16 -10 8 0 22 -7 31 -16 9 -8
22 -13 30 -10 7 3 16 -1 19 -8 3 -8 12 -17 20 -20 9 -4 12 -2 8 5 -3 6 3 5 15
-3 12 -7 21 -16 21 -21 0 -4 4 -5 10 -2 5 3 10 1 10 -6 0 -7 3 -9 7 -6 3 4 12
2 20 -5 11 -9 12 -7 7 8 -6 18 -6 18 7 1 8 -10 24 -19 36 -20 15 -1 19 -5 13
-12 -7 -8 -1 -10 19 -7 16 2 32 -1 35 -7 4 -6 18 -11 31 -11 13 0 26 -6 28
-12 4 -9 6 -9 6 1 1 11 5 10 16 -5 10 -13 14 -14 15 -5 0 10 3 11 13 2 8 -6
17 -8 20 -4 4 3 7 1 7 -7 0 -10 4 -10 17 1 11 10 14 10 9 2 -5 -9 -1 -13 13
-13 11 0 23 -5 26 -10 5 -8 11 -8 20 0 9 8 14 8 17 -1 2 -6 19 -12 38 -13 19
-1 40 -5 47 -9 6 -4 15 -3 18 3 5 8 11 7 22 -2 21 -17 56 -22 47 -6 -6 10 -4
11 7 0 16 -15 43 -16 33 -1 -5 8 -1 8 13 0 11 -6 23 -7 27 -4 3 3 6 1 6 -7 0
-10 3 -10 15 0 12 10 15 10 15 0 0 -10 3 -10 15 0 11 9 15 9 15 1 0 -11 39 -9
60 4 5 3 10 1 10 -5 0 -8 6 -7 21 1 15 8 19 8 15 0 -9 -14 0 -14 25 -1 13 8
19 7 19 0 0 -7 6 -8 18 -1 9 5 19 10 22 12 3 1 15 -3 28 -10 12 -6 22 -8 22
-4 0 13 84 12 92 -1 5 -7 8 -5 8 7 0 20 4 21 33 5 19 -10 20 -9 10 3 -10 12
-8 15 7 15 10 0 16 -4 13 -9 -3 -5 4 -4 14 2 11 6 23 7 27 4 3 -3 6 -2 6 4 0
7 12 8 34 3 26 -6 33 -4 30 5 -3 8 3 12 18 11 14 -1 22 4 20 12 -1 8 2 11 8 7
6 -3 8 -11 5 -16 -4 -5 -1 -9 4 -9 6 0 11 5 11 11 0 5 4 8 9 4 5 -3 12 -2 15
3 2 4 19 9 38 10 18 2 35 7 36 12 2 6 14 10 27 10 13 0 27 5 30 11 4 6 13 8
21 5 8 -3 17 1 21 9 4 12 8 13 19 4 8 -7 17 -9 21 -5 3 3 0 6 -8 7 -12 0 25
21 43 23 3 1 9 4 13 8 4 4 13 4 21 1 8 -3 17 2 20 11 5 13 9 14 21 5 11 -10
15 -8 20 10 4 17 8 19 14 9 7 -11 9 -11 9 1 0 7 6 11 15 7 9 -3 15 0 15 9 0 8
3 14 8 14 20 -3 33 2 27 11 -4 6 -3 9 2 8 14 -4 53 13 53 23 0 6 5 7 10 4 6
-3 10 -2 10 3 0 6 8 9 18 8 10 0 16 5 14 13 -2 8 3 11 13 8 10 -4 15 -1 15 10
0 9 3 13 7 10 3 -4 14 0 24 9 10 9 25 14 34 10 9 -3 13 -2 10 4 -3 6 -1 10 5
10 7 0 10 6 7 13 -3 9 3 13 17 13 11 -1 20 4 19 11 -2 8 4 10 14 6 13 -5 15
-2 9 12 -4 11 -4 16 0 12 4 -4 14 -1 22 6 13 10 14 9 7 -2 -5 -10 -4 -12 3 -7
7 4 12 14 12 21 0 9 6 12 15 9 11 -5 13 -2 9 10 -4 11 -1 16 11 16 10 0 13 -5
9 -12 -4 -7 -3 -8 4 -4 6 4 8 14 5 23 -4 11 -2 14 5 9 6 -3 16 2 22 13 7 14
16 18 28 14 15 -6 16 -5 2 12 -9 11 -10 16 -2 11 7 -4 12 -2 12 4 0 7 7 10 15
6 9 -3 15 0 15 8 0 8 7 17 16 20 9 4 14 9 11 12 -3 4 0 12 6 19 9 9 16 10 25
2 7 -6 12 -6 11 -1 -5 28 2 46 17 40 8 -3 12 -2 9 4 -3 6 -1 10 5 10 7 0 9 7
6 17 -4 10 -4 14 0 10 4 -4 13 1 21 11 8 9 11 11 7 3 -5 -10 -3 -12 5 -7 9 6
9 11 1 21 -10 11 -8 13 9 10 12 -2 19 0 16 6 -4 5 -1 9 5 9 6 0 8 5 5 11 -4 6
3 13 15 16 13 3 19 11 16 19 -3 9 1 14 12 14 15 0 15 2 2 10 -14 9 -13 11 10
14 6 0 11 6 12 11 1 6 6 15 12 22 43 49 42 47 45 81 1 15 3 15 11 2 5 -8 10
-12 11 -7 1 4 3 12 4 17 1 6 3 17 4 26 0 8 6 12 11 9 6 -3 10 1 10 10 0 8 6
18 14 21 8 3 12 12 9 20 -3 7 2 17 11 20 9 3 16 10 16 16 0 5 -6 6 -13 3 -6
-4 -3 1 7 9 11 9 16 16 11 16 -5 0 0 7 11 16 10 8 13 12 6 9 -11 -6 -11 -3 0
16 7 13 18 27 24 31 6 4 10 19 8 34 -2 19 1 24 13 20 10 -4 13 -2 10 8 -3 8 1
20 9 27 12 9 12 15 2 27 -8 10 -9 13 -2 9 7 -4 15 0 18 9 4 10 2 13 -6 8 -7
-5 -8 -3 -4 5 5 7 15 10 23 7 9 -4 11 -2 6 6 -9 17 -12 48 -2 43 9 -6 21 24
13 36 -3 5 -1 9 5 9 5 0 8 9 6 21 -3 16 0 19 13 14 14 -5 15 -4 5 6 -15 15
-17 33 -4 25 5 -4 7 4 3 16 -4 16 -2 19 9 13 11 -7 11 -5 -1 10 -8 10 -10 16
-4 12 7 -4 15 0 18 9 4 9 2 13 -5 8 -7 -4 -7 1 1 16 7 13 17 19 26 16 8 -3 13
-2 10 3 -3 4 2 17 10 27 9 10 13 13 9 7 -3 -7 -1 -13 4 -13 6 0 11 5 11 11 0
5 5 7 12 3 6 -4 8 -3 5 3 -4 6 1 17 10 24 14 12 16 12 8 -1 -5 -8 3 -4 18 10
15 14 27 32 27 40 0 10 3 11 8 4 4 -7 16 -1 33 17 15 15 25 30 22 33 -3 3 4 3
16 1 12 -2 19 0 16 5 -8 12 25 41 37 34 6 -4 8 -2 5 3 -8 13 17 35 29 25 4 -4
2 2 -6 12 -10 13 -10 17 -2 12 7 -4 12 -2 12 4 0 6 5 8 10 5 6 -3 10 -1 10 5
0 6 5 8 12 4 6 -4 8 -3 4 4 -3 6 2 15 11 21 10 6 14 11 10 11 -5 0 -1 7 7 16
9 8 21 12 27 8 8 -4 9 -3 5 4 -4 7 -1 12 6 12 10 0 10 2 -1 9 -11 7 -9 10 8
16 11 3 21 13 21 21 0 8 5 12 10 9 6 -3 10 1 10 10 0 11 5 15 15 11 18 -7 20
5 3 23 -11 10 -10 12 2 9 9 -2 14 3 12 11 -3 12 0 12 13 1 13 -11 15 -10 9 4
-3 9 -1 16 5 16 6 0 10 6 8 13 -1 6 4 11 12 9 8 -2 11 3 8 12 -4 9 1 17 13 21
12 4 17 12 13 22 -4 11 -2 14 5 9 8 -5 12 0 12 13 0 11 9 26 20 34 11 8 17 17
13 20 -3 4 -1 7 6 7 7 0 9 4 6 10 -3 6 -1 10 5 10 6 0 9 3 7 8 -7 10 19 32 28
24 4 -4 6 -2 5 3 -5 25 1 56 10 50 6 -3 10 0 10 8 0 7 9 23 20 35 13 14 16 22
8 22 -8 0 -9 3 -3 8 17 12 41 47 28 38 -7 -4 -13 -2 -13 3 0 6 10 11 21 11 18
0 19 2 9 15 -7 8 -8 15 -4 15 5 0 15 9 22 21 8 12 9 18 3 14 -20 -11 -12 6 12
27 12 11 17 17 10 14 -7 -4 -9 1 -6 14 3 11 10 20 15 20 6 0 7 7 4 16 -3 8 -2
13 3 10 5 -3 12 1 15 10 9 24 7 31 -4 14 -7 -10 -10 -11 -10 -2 0 7 6 15 13
18 8 3 14 10 15 17 2 22 7 42 15 55 5 6 5 17 2 22 -3 6 2 10 12 10 15 0 16 2
3 10 -9 6 -11 10 -3 10 7 0 10 7 7 15 -4 8 -1 15 7 15 7 0 9 3 6 7 -4 3 -1 13
6 21 9 13 9 14 0 8 -9 -5 -11 -2 -7 8 3 9 11 16 18 16 6 0 4 5 -4 10 -9 6 -10
10 -3 10 6 0 10 9 8 20 -3 13 0 18 7 14 7 -5 9 0 6 14 -4 12 -2 22 3 22 5 0 9
5 9 11 0 5 -4 8 -9 5 -5 -4 -7 3 -4 14 3 11 10 17 17 13 6 -3 8 -3 4 2 -4 4
-2 15 5 23 10 13 9 14 -2 8 -10 -7 -12 -3 -6 15 4 13 12 26 17 28 5 1 1 9 -9
16 -17 13 -16 14 7 24 20 8 21 10 6 10 -19 1 -19 2 -1 21 18 20 18 21 -1 14
-16 -6 -17 -5 -6 7 6 7 12 25 12 39 0 14 5 31 11 37 8 8 7 13 -2 18 -8 6 -10
4 -4 -5 5 -9 4 -11 -4 -6 -9 6 -9 11 0 22 6 8 8 14 3 14 -4 0 0 6 11 13 14 11
15 16 5 22 -9 5 -11 4 -6 -3 4 -7 2 -12 -3 -12 -14 0 -14 13 1 28 9 9 9 12 0
12 -7 0 -12 5 -12 11 0 5 5 7 10 4 13 -8 13 8 0 21 -11 11 -4 44 10 44 10 0 0
52 -14 69 -8 11 -8 13 2 7 8 -5 12 -1 12 13 0 11 -4 22 -9 25 -10 6 -8 33 4
60 4 10 4 21 -2 25 -5 3 -10 35 -11 70 -1 39 -7 68 -15 73 -9 6 -9 8 1 8 8 0
12 6 9 13 -2 6 -10 11 -16 9 -7 -1 -10 2 -6 8 3 6 10 8 14 6 4 -3 8 1 8 9 0 8
-4 12 -8 9 -4 -2 -10 0 -14 6 -3 5 -2 10 4 10 7 0 7 8 1 25 -6 16 -6 27 2 31
7 5 6 11 -5 19 -9 6 -16 20 -16 31 1 25 -5 46 -15 63 -6 9 -5 12 1 8 5 -3 10
0 10 8 0 8 -4 12 -8 10 -9 -6 -21 24 -14 35 3 5 1 11 -5 15 -5 3 -10 15 -10
26 0 10 -6 19 -12 19 -10 0 -10 2 0 9 17 10 15 21 -5 43 -8 9 -12 21 -9 27 3
5 1 11 -5 13 -6 2 -11 16 -11 31 0 15 -4 24 -9 21 -8 -5 -14 17 -10 39 0 4 -4
7 -10 7 -5 0 -9 8 -7 18 1 9 -6 29 -16 44 -10 15 -14 33 -10 39 4 7 3 10 -2 7
-5 -3 -15 0 -22 8 -10 11 -10 14 0 14 10 0 10 2 0 9 -8 4 -14 12 -15 17 -1 5
-5 8 -9 6 -12 -3 -9 13 4 26 9 9 8 12 -4 12 -9 0 -20 5 -24 12 -5 7 -3 8 7 3
12 -7 11 -5 -1 11 -7 10 -21 25 -29 32 -12 9 -12 12 -1 12 8 0 5 7 -8 19 -12
10 -19 21 -15 25 3 3 1 6 -5 6 -7 0 -11 3 -11 8 4 21 -3 32 -18 32 -14 0 -15
2 -5 9 11 6 10 10 -3 15 -10 3 -15 12 -12 21 4 10 1 12 -10 8 -13 -5 -15 -2
-10 11 5 11 3 15 -5 10 -8 -5 -9 -2 -5 9 4 10 2 16 -6 14 -7 -1 -11 4 -9 11 1
6 -3 12 -9 12 -5 0 -7 5 -4 10 3 6 -1 10 -9 10 -9 0 -16 5 -16 11 0 5 5 7 12
3 7 -4 8 -3 4 5 -4 6 -12 9 -17 5 -6 -3 -13 3 -16 15 -3 12 -10 21 -15 21 -5
0 -6 5 -2 12 5 8 2 9 -10 5 -9 -4 -15 -3 -11 2 3 6 -3 14 -12 20 -14 8 -15 11
-3 11 12 0 11 3 -3 11 -9 6 -15 14 -12 20 3 5 -1 6 -9 3 -15 -6 -21 6 -17 30
1 5 -5 6 -14 3 -9 -4 -15 -1 -15 8 0 8 -4 15 -10 15 -5 0 -10 7 -10 17 0 9 -3
14 -6 10 -8 -7 -53 36 -47 46 2 4 -1 7 -6 7 -6 0 -10 6 -9 13 2 7 -5 11 -16 9
-10 -2 -16 0 -13 5 2 4 -5 17 -16 28 -11 11 -16 13 -12 5 5 -8 -10 3 -32 25
-22 22 -38 44 -35 49 3 5 1 6 -5 3 -6 -4 -19 1 -29 9 -10 9 -13 12 -5 8 9 -4
12 -3 7 4 -4 6 -14 8 -23 5 -11 -4 -14 -3 -9 5 4 7 1 12 -8 12 -9 0 -16 5 -16
10 0 6 -8 10 -17 10 -9 0 -14 3 -10 6 8 9 -18 34 -35 34 -8 0 -20 9 -28 19 -7
11 -17 18 -22 15 -4 -3 -11 2 -14 10 -3 9 -12 16 -20 16 -8 0 -24 10 -36 23
-13 12 -27 22 -33 23 -22 2 -45 17 -45 29 0 8 -8 12 -20 10 -11 -2 -20 -1 -20
3 0 4 -13 16 -28 27 -18 12 -24 14 -17 4 6 -8 3 -7 -7 3 -9 10 -23 18 -32 18
-9 0 -16 5 -16 11 0 8 -5 7 -15 -1 -13 -11 -14 -10 -8 5 5 14 3 17 -10 12 -9
-3 -17 -2 -17 3 0 6 -7 10 -16 10 -9 0 -12 5 -8 13 5 7 0 6 -11 -3 -10 -8 -16
-10 -12 -4 7 12 -19 29 -37 25 -4 -1 -14 3 -22 10 -7 6 -18 8 -24 4 -5 -3 -13
0 -16 8 -3 9 -16 14 -29 12 -14 -1 -23 1 -20 4 2 4 -6 13 -18 21 -21 12 -21
12 -7 -5 14 -17 14 -18 -7 -6 -13 6 -23 16 -23 20 0 5 -10 7 -22 3 -12 -3 -19
-1 -15 5 4 6 -8 9 -28 8 -18 0 -32 3 -29 6 2 4 0 10 -6 14 -5 3 -10 0 -10 -7
0 -10 -2 -10 -9 1 -5 8 -16 11 -25 8 -8 -3 -18 -1 -22 5 -5 7 -2 8 6 3 9 -6
11 -4 5 4 -5 9 -10 10 -18 2 -15 -15 -30 -14 -21 1 5 8 2 9 -9 5 -10 -4 -17
-1 -17 6 0 8 -3 8 -9 -2 -7 -11 -10 -11 -17 0 -9 14 -17 16 -81 21 -18 1 -33
7 -33 13 0 5 -5 3 -10 -5 -8 -12 -10 -12 -10 -1 0 9 -9 12 -30 9 -16 -3 -30
-1 -30 3 0 5 -7 6 -15 3 -8 -3 -20 -2 -27 2 -18 12 -31 12 -45 1 -9 -7 -13 -4
-13 8 0 17 -1 17 -22 -1 -12 -10 -18 -14 -15 -7 4 6 3 14 -3 18 -5 3 -10 1
-10 -5 0 -7 -5 -8 -12 -3 -18 11 -32 10 -40 -2 -5 -6 -8 -6 -8 0 0 6 -23 10
-52 9 -30 -1 -56 3 -60 10 -5 7 -8 6 -8 -4 0 -13 -1 -13 -10 0 -8 12 -10 12
-10 1 0 -10 -3 -11 -14 -2 -8 7 -17 8 -20 3z m2314 -1646 c0 -2 -7 -7 -16 -10
-8 -3 -12 -2 -9 4 6 10 25 14 25 6z"/>
<path d="M3895 540 c-3 -5 -1 -10 4 -10 6 0 11 5 11 10 0 6 -2 10 -4 10 -3 0
-8 -4 -11 -10z"/>
</g>
</svg>
