<svg width="386" height="96" viewBox="0 0 386 96" fill="none" xmlns="http://www.w3.org/2000/svg">
<path d="M23.1357 1.57812V94H0.918945V1.57812H23.1357ZM76.4561 1.57812L43.2578 57.4375H19.2637L16.5977 37.3154H31.7686L49.542 1.57812H76.4561ZM53.3506 94L31.7051 53.5654L47.8916 38.6484L79.6299 94H53.3506ZM133.979 59.1514L155.814 1.57812H179.364L148.197 74.8936C147.012 77.6019 145.637 80.1833 144.071 82.6377C142.548 85.0921 140.728 87.2715 138.612 89.1758C136.539 91.0801 134.084 92.5824 131.249 93.6826C128.414 94.7829 125.092 95.333 121.283 95.333C120.352 95.333 119.21 95.3118 117.855 95.2695C116.544 95.2695 115.401 95.2484 114.428 95.2061L114.047 77.9404C114.597 78.0674 115.359 78.152 116.332 78.1943C117.305 78.1943 118.004 78.1943 118.427 78.1943C120.966 78.1943 122.976 77.8981 124.457 77.3057C125.938 76.6709 127.102 75.7399 127.948 74.5127C128.837 73.2432 129.599 71.6351 130.233 69.6885L133.979 59.1514ZM121.601 1.57812L140.517 41.6953L147.753 67.3398H131.757L97.9238 1.57812H121.601ZM243.361 62.6426H220.383V45.4404H243.361C246.493 45.4404 249.032 44.9115 250.979 43.8535C252.925 42.7956 254.343 41.3356 255.231 39.4736C256.162 37.5693 256.628 35.4323 256.628 33.0625C256.628 30.5234 256.162 28.1748 255.231 26.0166C254.343 23.8584 252.925 22.1234 250.979 20.8115C249.032 19.4574 246.493 18.7803 243.361 18.7803H228.762V94H206.481V1.57812H243.361C250.767 1.57812 257.136 2.93229 262.468 5.64062C267.842 8.34896 271.968 12.0729 274.846 16.8125C277.723 21.5098 279.162 26.8841 279.162 32.9355C279.162 38.9023 277.723 44.1074 274.846 48.5508C271.968 52.9941 267.842 56.4642 262.468 58.9609C257.136 61.4154 250.767 62.6426 243.361 62.6426ZM363.218 62.7061H385.435C385.138 69.1383 383.403 74.8089 380.229 79.7178C377.056 84.6266 372.655 88.4564 367.026 91.207C361.44 93.9154 354.839 95.2695 347.222 95.2695C341.043 95.2695 335.521 94.2327 330.654 92.1592C325.83 90.0856 321.725 87.1022 318.34 83.209C314.997 79.3158 312.437 74.5973 310.659 69.0537C308.924 63.5101 308.057 57.2682 308.057 50.3281V45.3135C308.057 38.3734 308.966 32.1315 310.786 26.5879C312.648 21.002 315.272 16.2624 318.657 12.3691C322.085 8.43359 326.19 5.42904 330.972 3.35547C335.754 1.2819 341.064 0.245117 346.904 0.245117C354.945 0.245117 361.737 1.68392 367.28 4.56152C372.824 7.43913 377.119 11.3958 380.166 16.4316C383.213 21.4251 385.011 27.1169 385.562 33.5068H363.345C363.26 30.0368 362.668 27.138 361.567 24.8105C360.467 22.4408 358.732 20.6634 356.362 19.4785C353.993 18.2936 350.84 17.7012 346.904 17.7012C344.154 17.7012 341.763 18.209 339.731 19.2246C337.7 20.2402 336.007 21.8483 334.653 24.0488C333.299 26.2493 332.284 29.1058 331.606 32.6182C330.972 36.0882 330.654 40.2777 330.654 45.1865V50.3281C330.654 55.237 330.951 59.4264 331.543 62.8965C332.135 66.3665 333.088 69.2018 334.399 71.4023C335.711 73.6029 337.404 75.2321 339.478 76.29C341.593 77.3057 344.175 77.8135 347.222 77.8135C350.607 77.8135 353.464 77.2845 355.791 76.2266C358.118 75.1263 359.917 73.4759 361.187 71.2754C362.456 69.0326 363.133 66.1761 363.218 62.7061Z" fill="#3E3E3C"/>
</svg>
